<?xml version="1.0" standalone="no"?>
<!DOCTYPE svg PUBLIC "-//W3C//DTD SVG 20010904//EN"
 "http://www.w3.org/TR/2001/REC-SVG-20010904/DTD/svg10.dtd">
<svg version="1.0" xmlns="http://www.w3.org/2000/svg"
 width="294.000000pt" height="294.000000pt" viewBox="0 0 294.000000 294.000000"
 preserveAspectRatio="xMidYMid meet">
<metadata>
Created by potrace 1.11, written by Peter Selinger 2001-2013
</metadata>
<g transform="translate(0.000000,294.000000) scale(0.100000,-0.100000)"
fill="#000000" stroke="none">
<path d="M1219 2931 c-1 -3 -1 -9 -1 -13 1 -3 -5 -9 -13 -12 -8 -3 -15 -1 -15
5 0 6 -6 6 -17 1 -10 -5 -27 -8 -39 -6 -14 2 -25 -4 -33 -19 -6 -12 -9 -14 -7
-4 6 20 -1 21 -34 2 -19 -10 -28 -11 -39 -2 -8 7 -12 8 -9 2 3 -5 0 -16 -8
-23 -9 -8 -14 -9 -14 -2 0 6 -5 8 -10 5 -6 -4 -8 -10 -6 -14 3 -4 -1 -8 -9 -8
-8 0 -15 5 -15 11 0 5 -6 2 -13 -9 -8 -10 -19 -15 -25 -11 -8 4 -12 0 -12 -11
0 -15 -2 -16 -10 -3 -6 10 -10 11 -10 3 0 -7 -6 -13 -14 -13 -8 0 -17 6 -20
13 -3 6 -4 3 -3 -8 1 -12 -3 -19 -10 -17 -7 1 -13 -3 -13 -9 0 -5 -4 -7 -10
-4 -5 3 -10 0 -10 -7 0 -10 -2 -10 -9 1 -7 11 -10 9 -15 -7 -4 -12 -13 -19
-20 -16 -8 3 -21 -5 -30 -18 -9 -12 -16 -18 -16 -13 0 6 -5 3 -10 -5 -8 -12
-10 -12 -10 -1 0 8 -9 2 -21 -13 -11 -14 -27 -26 -35 -26 -8 0 -14 -4 -14 -10
0 -5 -7 -10 -16 -10 -9 0 -12 -5 -8 -12 5 -8 2 -9 -9 -5 -11 4 -17 1 -17 -8 0
-7 -5 -17 -12 -21 -7 -5 -9 -2 -4 7 4 8 -1 4 -12 -8 -11 -12 -22 -19 -26 -16
-3 4 -6 -2 -6 -12 0 -10 -3 -16 -6 -12 -8 7 -34 -17 -34 -32 0 -5 -5 -13 -12
-17 -7 -5 -9 -2 -4 7 4 8 -2 3 -14 -11 -12 -14 -18 -19 -14 -11 5 9 3 12 -4 7
-7 -4 -12 -14 -12 -21 0 -8 -9 -19 -20 -25 -11 -6 -18 -15 -15 -19 5 -9 -23
-26 -37 -23 -3 1 -5 -9 -4 -22 2 -19 -1 -23 -13 -19 -9 4 -13 3 -9 -1 10 -12
-15 -34 -32 -29 -13 4 -13 4 0 -6 13 -9 12 -13 -7 -26 -13 -9 -23 -23 -23 -31
0 -8 -4 -13 -9 -9 -5 3 -13 0 -17 -6 -4 -8 -3 -9 4 -5 19 11 14 -5 -5 -21 -12
-10 -13 -12 -3 -8 8 4 6 -1 -5 -10 -11 -9 -20 -19 -20 -23 0 -4 -4 -6 -9 -4
-5 2 -6 -4 -3 -12 3 -8 -1 -17 -8 -20 -8 -3 -12 -14 -10 -26 2 -11 0 -20 -6
-20 -5 0 -9 -7 -9 -16 0 -9 -5 -12 -12 -8 -8 5 -9 2 -5 -9 3 -10 2 -17 -4 -17
-6 0 -8 -4 -4 -9 3 -5 1 -12 -5 -16 -5 -3 -10 -11 -10 -16 0 -6 5 -7 12 -3 7
4 8 3 4 -5 -4 -6 -11 -9 -16 -6 -11 7 -19 -18 -16 -49 3 -23 1 -25 -13 -14 -9
7 -13 8 -9 4 4 -5 2 -16 -5 -24 -9 -13 -9 -14 0 -8 7 4 13 2 13 -3 0 -6 -5
-11 -11 -11 -6 0 -9 -7 -6 -15 4 -8 1 -17 -4 -21 -6 -3 -9 -15 -6 -25 3 -11 1
-17 -3 -14 -5 3 -11 1 -15 -5 -3 -5 -2 -10 3 -10 6 0 8 -9 5 -20 -3 -11 -10
-20 -17 -20 -6 0 -4 -5 4 -10 8 -5 10 -10 3 -10 -6 0 -9 -9 -6 -21 4 -12 0
-25 -7 -29 -20 -13 -21 -40 -2 -33 15 4 15 3 -1 -10 -15 -12 -17 -32 -16 -158
2 -149 5 -173 20 -163 5 3 9 0 9 -5 0 -6 -6 -11 -12 -11 -7 -1 -2 -7 12 -15
14 -8 19 -14 13 -15 -7 0 -13 -5 -13 -11 0 -5 4 -8 8 -5 5 3 15 -5 22 -19 8
-15 18 -21 28 -18 11 5 13 3 7 -7 -6 -10 -4 -12 8 -7 10 3 17 2 17 -4 0 -6 6
-7 12 -3 17 11 48 12 42 2 -3 -4 0 -8 6 -8 6 0 8 -5 4 -12 -4 -7 -3 -8 5 -4 6
4 9 12 6 17 -5 8 16 14 38 10 4 0 7 3 7 9 0 5 6 7 14 4 9 -3 20 3 28 15 7 12
21 21 30 21 10 0 18 4 18 9 0 5 9 11 21 14 14 4 18 10 13 19 -6 10 -4 10 9 -1
16 -12 17 -12 10 5 -6 17 -5 17 10 5 15 -12 17 -12 11 3 -5 12 -2 15 12 9 11
-4 15 -3 11 4 -4 5 5 15 18 21 14 7 25 19 25 27 0 9 5 13 10 10 6 -3 10 -1 10
4 0 6 7 11 17 11 9 0 14 3 10 6 -6 7 21 38 35 40 4 1 11 2 16 3 4 1 0 6 -8 11
-13 9 -13 10 0 10 18 0 51 35 43 44 -6 6 12 10 29 7 4 0 5 6 1 15 -4 10 1 17
15 21 14 3 19 10 15 21 -4 10 -2 13 5 8 7 -4 12 -1 12 8 0 10 6 13 17 9 11 -4
14 -3 9 5 -4 7 10 29 33 53 23 22 41 45 41 50 0 6 3 8 8 6 9 -6 33 19 25 27
-4 3 -1 6 6 6 7 0 10 4 6 9 -3 5 4 13 16 16 13 5 18 12 14 22 -5 14 -3 14 12
2 11 -9 14 -10 9 -1 -4 6 -2 12 3 12 6 0 10 6 8 13 -1 6 3 11 10 10 7 -2 10 4
6 13 -3 9 0 14 8 12 8 -2 13 3 12 10 -2 6 2 12 7 12 16 0 47 35 42 48 -2 7 0
12 5 11 24 -4 35 2 29 17 -5 14 -4 15 9 4 13 -11 14 -10 9 5 -5 12 -4 16 4 11
6 -3 13 3 17 14 4 11 10 18 15 15 4 -3 22 11 39 30 17 19 38 35 48 36 16 0 15
1 -2 9 -17 7 -17 9 -3 9 12 1 15 6 11 19 -6 15 -5 16 13 2 18 -14 18 -14 5 3
-14 18 -16 18 -28 1 -7 -10 -13 -13 -13 -7 0 6 -8 10 -17 8 -10 -1 -17 -8 -15
-15 2 -9 -5 -8 -23 4 -23 15 -26 15 -31 1 -5 -12 -9 -13 -20 -4 -11 9 -14 8
-14 -1 0 -7 -6 -10 -14 -7 -7 3 -19 0 -26 -6 -10 -9 -11 -9 -5 2 5 9 3 12 -6
9 -8 -3 -13 -14 -12 -24 1 -18 1 -18 -13 0 -10 14 -14 16 -14 5 0 -12 -2 -12
-10 1 -8 12 -10 12 -11 -5 0 -11 -3 -14 -6 -7 -4 10 -8 10 -19 1 -8 -6 -14 -8
-14 -4 0 4 -6 2 -14 -4 -10 -9 -16 -9 -21 -1 -5 8 -11 5 -21 -7 -9 -12 -13
-13 -14 -5 0 7 -5 10 -11 7 -6 -4 -8 -14 -5 -24 5 -12 2 -11 -9 3 -8 11 -15
15 -15 9 0 -6 -11 -10 -25 -8 -14 1 -25 -2 -25 -6 0 -5 -5 -9 -11 -9 -5 0 -8
4 -5 9 4 5 0 12 -6 14 -10 4 -10 6 0 6 6 1 12 8 12 17 0 8 4 13 9 10 5 -3 12
1 15 10 3 8 9 13 13 11 10 -5 43 29 37 37 -2 4 1 2 7 -3 8 -7 18 -2 31 12 11
12 16 15 12 7 -4 -9 1 -7 14 5 40 38 50 44 71 40 11 -2 20 -1 20 3 -3 19 2 32
12 32 5 0 7 -5 4 -11 -4 -6 2 -5 14 3 12 7 21 17 21 22 0 4 7 3 15 -4 13 -11
14 -10 9 3 -4 12 0 15 20 13 16 -2 26 2 26 10 0 18 17 27 26 13 5 -8 3 -9 -6
-4 -9 6 -11 4 -5 -5 6 -10 11 -9 22 5 7 11 13 15 13 11 0 -5 8 -2 17 5 10 8
14 9 10 2 -4 -6 -2 -15 4 -19 8 -4 9 -3 5 4 -4 7 -2 12 4 12 6 0 9 4 6 9 -4 5
4 7 16 3 12 -3 19 -1 15 5 -3 5 0 10 8 10 8 0 12 -5 8 -10 -3 -5 4 -4 14 2 11
6 23 7 27 4 3 -3 6 -1 6 5 0 7 5 12 11 12 5 0 7 -5 4 -10 -8 -13 17 -9 27 4 4
6 14 4 24 -5 11 -9 15 -9 10 -1 -8 14 19 12 43 -2 10 -7 12 -6 6 4 -6 10 -4
12 10 6 15 -5 16 -4 5 9 -11 13 -10 14 3 9 8 -3 18 -13 21 -21 6 -14 9 -14 27
3 13 12 18 13 14 3 -4 -10 3 -14 25 -14 16 0 30 4 30 9 0 5 7 3 15 -4 8 -7 15
-9 15 -5 0 4 8 1 17 -6 9 -8 14 -9 10 -3 -3 6 0 11 8 11 8 0 12 -4 9 -9 -3 -4
2 -8 11 -8 10 0 13 -5 9 -12 -5 -9 -2 -9 9 1 10 7 17 9 17 3 0 -11 18 -11 38
1 6 5 12 4 12 -1 0 -5 7 -9 15 -9 11 0 12 4 4 13 -8 9 -5 11 10 7 12 -3 21
-10 21 -17 0 -6 5 -4 10 4 7 11 10 12 10 2 0 -9 7 -11 21 -7 14 5 29 0 46 -17
15 -12 23 -18 19 -11 -3 6 -2 14 4 18 5 3 10 -2 10 -11 0 -10 3 -14 6 -11 4 4
15 -2 25 -14 12 -14 18 -16 22 -7 4 9 6 7 6 -4 1 -19 40 -50 53 -42 4 3 5 -1
2 -9 -3 -8 2 -17 10 -20 9 -4 16 -13 16 -21 0 -8 10 -22 22 -30 15 -11 18 -16
8 -16 -9 0 -11 -3 -5 -8 6 -4 15 -16 21 -26 6 -11 19 -24 29 -30 31 -18 103
-94 96 -102 -3 -4 -1 -4 5 -1 13 8 37 -16 27 -26 -3 -4 -1 -7 6 -7 8 0 11 -7
7 -15 -3 -9 0 -15 9 -15 8 0 15 -9 15 -20 0 -11 5 -20 10 -20 6 0 10 -8 10
-19 0 -10 6 -24 14 -30 8 -7 12 -21 8 -34 -5 -19 -4 -20 11 -9 14 12 16 11 12
-7 -2 -12 1 -21 6 -21 6 0 9 -12 7 -27 -2 -17 2 -28 12 -30 13 -4 13 -3 0 7
-13 10 -13 11 0 7 9 -2 14 -13 12 -25 -2 -11 2 -23 8 -27 8 -5 8 -11 -1 -21
-9 -11 -8 -15 5 -20 9 -3 16 -10 16 -16 0 -5 -6 -6 -12 -3 -7 4 -6 1 2 -7 16
-14 24 -52 9 -42 -5 3 -9 0 -9 -5 0 -6 5 -11 12 -11 9 0 9 -3 0 -12 -7 -7 -12
-17 -12 -22 0 -6 5 -4 10 4 6 9 10 10 10 3 0 -7 -8 -17 -17 -22 -14 -8 -15
-10 -3 -11 11 0 15 -12 16 -45 0 -25 -3 -45 -8 -45 -4 0 -7 -3 -6 -8 5 -13
-65 -83 -79 -78 -7 3 -15 0 -19 -6 -5 -7 -2 -8 6 -3 9 5 11 4 6 -4 -5 -7 -20
-10 -37 -7 -16 2 -27 0 -23 -5 3 -5 0 -9 -6 -9 -6 0 -8 -5 -5 -10 3 -6 0 -13
-9 -16 -9 -4 -13 -16 -11 -35 2 -16 0 -29 -5 -29 -6 0 -9 -5 -8 -12 2 -7 -7
-17 -19 -22 -13 -6 -25 -17 -28 -24 -2 -7 -1 -11 4 -8 4 3 6 -5 4 -18 -7 -37
-41 -23 -38 15 1 16 -2 29 -7 29 -6 0 -8 9 -5 19 3 13 0 18 -8 15 -7 -3 -11
-18 -10 -35 1 -16 -2 -29 -7 -29 -6 0 -8 -7 -4 -15 3 -9 0 -15 -9 -15 -7 0
-17 -5 -21 -12 -4 -7 -3 -8 4 -4 8 4 10 2 6 -8 -3 -9 -12 -12 -21 -9 -10 4
-14 2 -10 -4 4 -6 -2 -13 -12 -16 -15 -3 -18 -1 -14 11 5 11 3 13 -6 7 -10 -6
-11 -3 -2 14 7 11 8 21 4 21 -4 0 -1 5 7 10 13 8 12 10 -4 10 -19 0 -19 0 -1
13 14 11 15 16 5 22 -9 6 -11 4 -5 -5 5 -9 4 -11 -4 -6 -6 4 -8 13 -4 19 10
16 10 38 1 58 -3 8 -3 22 2 29 6 11 2 21 -13 35 -13 11 -16 16 -7 10 13 -9 13
-8 1 8 -7 9 -20 17 -28 17 -8 0 -11 4 -8 10 4 6 -1 7 -11 3 -11 -4 -15 -2 -11
4 4 5 -5 15 -19 22 -19 8 -24 8 -18 -1 5 -8 2 -9 -10 -5 -10 4 -15 3 -11 -3 3
-6 2 -10 -4 -10 -5 0 -12 6 -15 13 -4 6 -5 3 -2 -9 2 -12 -1 -29 -7 -39 -7
-13 -6 -16 2 -11 8 5 10 -4 7 -30 -3 -22 0 -45 7 -53 9 -12 9 -13 0 -7 -17 9
-17 -6 0 -23 10 -11 9 -12 -2 -6 -10 6 -11 2 -6 -15 5 -16 4 -20 -5 -15 -9 6
-9 2 0 -15 9 -16 9 -20 1 -15 -7 4 -19 1 -28 -7 -14 -11 -16 -11 -8 2 8 13 7
13 -8 1 -14 -11 -17 -11 -17 0 0 12 -2 12 -9 0 -6 -9 -11 -10 -15 -2 -4 6 -12
9 -17 6 -5 -4 -9 -1 -9 5 0 7 -7 9 -16 6 -8 -3 -12 -2 -9 4 3 6 -1 10 -9 10
-8 0 -20 8 -25 18 -6 9 -11 13 -11 9 0 -9 -14 2 -78 64 -26 26 -46 52 -44 58
2 7 -3 8 -15 4 -16 -6 -17 -5 -3 12 8 10 10 16 4 12 -11 -6 -25 13 -29 38 0 6
-7 9 -14 7 -7 -1 -10 2 -6 8 3 5 2 10 -4 10 -6 0 -8 6 -5 13 6 17 -20 69 -30
60 -4 -4 -4 0 0 10 7 20 -13 50 -29 40 -6 -3 -7 -1 -3 6 6 9 11 9 22 0 10 -8
14 -8 14 0 0 6 -5 11 -11 11 -8 0 -8 4 0 14 9 11 9 16 0 21 -12 8 -31 -14 -23
-27 3 -4 1 -8 -5 -8 -5 0 -9 -9 -8 -19 0 -11 6 -17 12 -13 5 3 4 -2 -4 -11 -7
-9 -9 -17 -3 -17 5 0 8 -16 6 -35 -2 -21 1 -33 6 -30 6 3 7 -1 4 -9 -4 -10 -1
-16 7 -16 9 0 10 -3 4 -8 -14 -10 -15 -53 -1 -45 6 3 2 -3 -9 -14 -11 -11 -23
-19 -27 -16 -4 2 -5 -3 -2 -11 4 -10 -1 -18 -11 -22 -13 -5 -14 -9 -3 -15 10
-6 8 -9 -7 -9 -17 0 -17 -2 -5 -10 14 -9 13 -11 -9 -14 -5 0 -13 -5 -18 -10
-5 -5 -2 -6 6 -1 15 8 13 -6 -5 -49 -5 -15 -4 -17 6 -11 9 5 11 4 6 -3 -4 -7
-15 -12 -24 -12 -13 0 -14 -2 -3 -9 10 -7 11 -9 0 -13 -7 -2 -12 -19 -11 -44
1 -28 -1 -35 -8 -24 -8 12 -10 12 -11 -5 -1 -11 -3 -24 -4 -30 -2 -5 -4 -14
-5 -20 -1 -5 -3 -14 -5 -20 -1 -5 -3 -16 -3 -23 -1 -7 -6 -11 -10 -8 -4 2 -9
-7 -10 -21 -1 -14 -8 -33 -15 -41 -10 -13 -9 -15 3 -8 12 6 11 4 -1 -6 -9 -7
-14 -19 -12 -25 3 -7 -1 -13 -7 -13 -8 0 -11 -10 -8 -25 3 -13 2 -23 -1 -22
-3 1 -6 -1 -6 -4 0 -3 -6 -13 -14 -22 -7 -10 -10 -17 -5 -17 4 0 -1 -7 -12
-16 -10 -8 -14 -13 -7 -10 6 4 14 2 18 -4 3 -5 -1 -10 -10 -10 -11 0 -15 -5
-11 -16 3 -8 2 -12 -4 -9 -6 3 -10 -3 -10 -14 0 -12 -5 -21 -11 -21 -8 0 -7
-5 1 -15 11 -13 10 -14 -5 -9 -12 5 -16 4 -12 -3 4 -6 -1 -18 -11 -26 -10 -9
-18 -29 -17 -44 0 -15 -6 -34 -15 -41 -12 -11 -12 -14 -2 -19 10 -4 8 -9 -8
-20 -16 -11 -18 -18 -10 -28 7 -8 7 -15 1 -19 -6 -4 -6 -18 -1 -36 5 -16 5
-32 0 -35 -10 -6 -8 -24 4 -43 4 -7 2 -20 -6 -29 -9 -12 -10 -15 0 -9 7 4 15
0 19 -11 4 -10 11 -21 17 -25 7 -5 7 -8 -1 -8 -9 0 -7 -6 5 -18 9 -11 20 -17
24 -15 4 2 5 -3 2 -11 -4 -11 0 -16 13 -16 10 0 24 -9 31 -21 7 -11 19 -18 27
-15 7 2 16 -2 19 -11 4 -10 15 -14 35 -11 18 3 27 0 25 -7 -6 -15 39 -17 48
-2 5 8 8 7 8 -4 0 -14 22 -16 190 -17 126 -1 190 2 190 9 0 5 -5 7 -12 3 -7
-5 -8 -3 -3 6 6 10 11 9 22 -5 11 -17 17 -14 14 7 0 4 6 5 14 2 8 -4 12 -10 9
-15 -3 -5 0 -9 5 -9 6 0 11 6 11 14 0 20 17 29 26 15 5 -8 3 -9 -6 -4 -9 5
-11 4 -6 -4 6 -8 12 -9 20 -2 7 6 16 8 19 4 4 -3 7 -1 7 7 0 10 3 10 14 1 11
-9 16 -9 22 0 5 8 3 9 -6 4 -9 -5 -11 -4 -6 4 5 7 12 9 19 3 15 -11 60 11 49
24 -4 4 1 2 11 -5 13 -10 17 -10 17 -1 0 7 7 10 15 6 8 -3 15 0 15 6 0 7 5 6
15 -2 13 -11 14 -10 9 4 -5 12 -2 15 12 9 11 -4 15 -3 10 5 -4 7 2 9 18 6 14
-2 28 0 31 6 4 6 12 7 18 3 9 -5 9 -3 0 8 -10 13 -7 15 27 13 31 -1 37 2 32
14 -4 11 -1 14 12 9 11 -5 15 -3 10 5 -5 8 -2 9 9 5 10 -3 17 -2 17 4 0 6 5 7
10 4 6 -3 13 1 16 9 3 9 17 16 31 16 13 0 21 4 18 10 -3 5 6 12 20 16 22 5 29
15 27 35 -1 4 8 5 19 2 13 -4 27 2 40 16 11 12 25 18 31 15 7 -4 8 -2 4 5 -4
6 0 14 8 17 9 3 13 11 9 18 -4 6 1 5 11 -3 9 -8 16 -10 15 -5 -4 21 2 34 16
34 7 0 19 8 24 18 6 9 11 13 11 9 0 -4 6 -2 14 5 8 7 11 17 8 22 -3 5 2 7 11
3 11 -4 14 -2 10 9 -3 8 1 14 11 14 9 0 16 7 16 15 0 8 6 14 13 13 6 -2 11 3
9 10 -1 6 5 12 13 12 18 0 38 36 29 53 -5 8 -3 8 9 -1 14 -12 16 -11 12 7 -2
11 -1 20 3 20 22 -4 31 3 25 18 -5 12 -3 14 7 8 10 -6 12 -4 7 9 -4 9 -3 15 2
12 5 -3 15 2 22 11 12 14 12 16 -1 9 -9 -4 -8 -1 3 7 9 8 17 19 17 26 0 6 8
11 18 11 13 0 14 2 4 9 -11 6 -10 10 3 15 10 3 15 12 11 21 -3 8 0 14 7 12 7
-1 12 5 12 13 0 8 7 22 16 30 9 8 15 23 13 33 -1 10 2 14 8 10 7 -4 9 1 6 15
-4 13 -2 20 6 19 6 -1 12 10 14 26 2 17 8 25 14 21 7 -5 9 -1 5 9 -3 9 1 18
10 21 8 4 13 12 10 20 -3 7 0 19 6 26 9 10 9 11 0 6 -7 -4 -9 1 -6 15 3 11 12
23 19 26 8 3 14 9 14 15 0 5 -6 6 -12 2 -7 -4 -4 2 6 14 14 17 16 22 5 22 -10
1 -8 4 4 11 15 9 16 13 5 27 -11 13 -11 15 3 10 14 -5 16 0 14 28 -1 19 4 45
11 58 6 14 10 27 7 30 -3 3 -2 13 2 23 13 29 13 67 1 82 -8 11 -8 13 1 7 10
-5 12 22 11 124 -2 73 -6 134 -10 136 -5 3 -8 11 -8 17 0 7 4 6 10 -3 7 -12 9
-10 7 8 -1 15 -6 21 -16 17 -10 -4 -9 0 4 15 14 15 15 19 4 15 -10 -4 -16 0
-16 9 0 8 4 13 8 10 4 -2 11 1 15 7 4 8 3 9 -4 5 -7 -4 -12 -2 -12 4 0 6 -4 9
-8 6 -5 -3 -7 11 -5 31 1 20 -3 43 -10 52 -7 8 -7 12 -1 8 6 -3 11 0 11 8 0 8
-5 11 -10 8 -6 -4 -8 2 -5 15 4 15 2 19 -9 15 -13 -5 -13 -3 -3 17 9 17 9 21
0 15 -9 -5 -10 -2 -6 13 4 11 2 23 -4 27 -6 3 -7 11 -4 17 5 7 2 9 -7 6 -11
-4 -14 3 -13 28 1 23 -3 34 -11 34 -8 0 -17 5 -21 12 -5 7 -3 8 6 3 17 -11 4
32 -21 68 -11 15 -17 32 -14 37 3 6 1 10 -4 10 -6 0 -11 7 -11 15 0 8 -5 15
-11 15 -8 0 -7 5 1 15 11 13 10 14 -3 10 -8 -4 -18 -1 -23 6 -5 8 -3 10 5 4 9
-5 9 -1 -1 14 -7 12 -16 21 -20 21 -5 0 -8 7 -8 15 0 8 -4 15 -9 15 -8 0 -24
37 -22 52 0 4 -7 4 -16 1 -12 -5 -15 -2 -10 10 4 11 1 17 -8 17 -8 0 -15 6
-15 13 0 7 -9 18 -21 25 -12 8 -18 19 -15 28 5 13 -6 19 -27 15 -5 -1 -6 3 -3
8 8 12 -38 63 -47 54 -4 -3 -7 -2 -7 3 0 12 -50 70 -51 58 0 -5 -4 1 -9 14 -5
12 -16 22 -25 22 -8 0 -15 5 -15 11 0 5 -4 7 -10 4 -5 -3 -10 1 -10 10 0 11
-5 15 -16 11 -8 -3 -13 -2 -11 2 2 4 -4 15 -15 25 -12 11 -18 13 -19 5 0 -7
-4 -3 -9 10 -8 19 -27 28 -53 23 -5 -1 -6 3 -2 8 3 6 -5 13 -19 17 -18 4 -23
10 -18 22 5 15 4 16 -13 2 -17 -14 -18 -13 -12 2 4 12 2 15 -8 12 -8 -3 -22 1
-31 10 -8 9 -20 14 -25 11 -5 -4 -9 1 -9 9 0 10 -6 13 -16 9 -8 -3 -26 5 -41
18 -14 13 -23 18 -19 11 7 -11 4 -11 -15 0 -13 7 -26 15 -29 18 -3 3 -16 7
-30 9 -14 1 -28 8 -31 13 -4 6 -18 11 -33 11 -14 0 -26 3 -26 7 0 4 -7 10 -14
13 -11 4 -13 1 -10 -11 4 -12 -1 -10 -15 7 -13 14 -21 18 -21 10 0 -9 -3 -10
-8 -4 -4 6 -22 11 -39 10 -18 0 -33 4 -33 9 0 5 -7 3 -15 -4 -13 -11 -14 -10
-10 3 4 8 1 18 -6 23 -8 4 -10 3 -5 -4 10 -16 -7 -15 -23 1 -9 7 -11 7 -8 1 4
-7 0 -14 -8 -17 -9 -4 -12 -1 -8 9 3 7 0 14 -6 14 -6 0 -11 -6 -11 -12 0 -10
-2 -10 -9 0 -6 10 -53 13 -214 11 -114 -1 -208 -5 -208 -8z m43 -20 c-4 -10
-7 -11 -10 -3 -2 7 -8 10 -12 7 -5 -3 -11 -2 -14 3 -2 4 6 8 19 8 16 0 21 -4
17 -15z m73 9 c3 -6 -1 -7 -9 -4 -18 7 -21 14 -7 14 6 0 13 -4 16 -10z m706
-847 c13 -16 12 -17 -3 -4 -10 7 -18 15 -18 17 0 8 8 3 21 -13z m-941 3 c0 -2
-8 -10 -17 -17 -16 -13 -17 -12 -4 4 13 16 21 21 21 13z m750 -786 c0 -5 -2
-10 -4 -10 -3 0 -8 5 -11 10 -3 6 -1 10 4 10 6 0 11 -4 11 -10z m-785 -790
c-3 -5 -11 -10 -16 -10 -6 0 -7 5 -4 10 3 6 11 10 16 10 6 0 7 -4 4 -10z"/>
<path d="M640 2700 c-9 -6 -10 -10 -3 -10 6 0 15 5 18 10 8 12 4 12 -15 0z"/>
<path d="M2605 2400 c3 -5 8 -10 11 -10 2 0 4 5 4 10 0 6 -5 10 -11 10 -5 0
-7 -4 -4 -10z"/>
<path d="M1327 1539 c7 -7 15 -10 18 -7 3 3 -2 9 -12 12 -14 6 -15 5 -6 -5z"/>
<path d="M1318 1513 c7 -3 16 -2 19 1 4 3 -2 6 -13 5 -11 0 -14 -3 -6 -6z"/>
<path d="M2106 1132 c-3 -5 1 -9 9 -9 8 0 15 4 15 9 0 4 -4 8 -9 8 -6 0 -12
-4 -15 -8z"/>
</g>
</svg>
